<?xml version="1.0" encoding="iso-8859-1"?>
<!-- Generator: Adobe Illustrator 19.0.0, SVG Export Plug-In . SVG Version: 6.00 Build 0)  -->
<svg version="1.1" id="Layer_1" xmlns="http://www.w3.org/2000/svg" xmlns:xlink="http://www.w3.org/1999/xlink" x="0px" y="0px"
	 viewBox="0 0 334.352 334.352" style="enable-background:new 0 0 334.352 334.352;" xml:space="preserve">
<g id="XMLID_351_">
	<g id="XMLID_352_">
		<path id="XMLID_16_" style="fill:#2B7B57;" d="M226.22,81.399c-26.746,26.746-79.719,17.136-79.719,17.136
			s-9.61-52.973,17.136-79.719C184.182-1.729,220.202-0.822,235.8,0.703c4.515,0.441,8.091,4.018,8.533,8.533
			C245.858,24.834,246.764,60.854,226.22,81.399z"/>
		<path id="XMLID_15_" style="fill:#2B7B57;" d="M105.466,90.429c22.956,22.956,68.424,14.708,68.424,14.708
			s8.248-45.468-14.708-68.424c-17.107-17.107-46.715-16.886-60.693-15.662c-4.627,0.405-8.28,4.059-8.685,8.685
			C88.581,43.714,88.359,73.322,105.466,90.429z"/>
	</g>
	<path id="XMLID_439_" style="fill:#49B86E;" d="M251.996,73.82c-38.149-5.817-77.248,17.317-84.82,17.317
		c-7.86,0-46.672-23.134-84.82-17.317c-56.575,8.625-70.484,52.189-63.994,90.674c7.128,42.258,27.481,74.084,36.631,112.698
		c10.999,46.414,50.659,57.16,78.033,57.16c23.293,0,22.853-5.457,34.151-5.457c13.677,0,11.374,5.457,34.665,5.457
		c27.893,0,66.518-10.746,77.516-57.16c9.152-38.615,29.505-70.44,36.633-112.698C322.481,126.008,308.571,82.444,251.996,73.82z"/>
</g>
<g>
</g>
<g>
</g>
<g>
</g>
<g>
</g>
<g>
</g>
<g>
</g>
<g>
</g>
<g>
</g>
<g>
</g>
<g>
</g>
<g>
</g>
<g>
</g>
<g>
</g>
<g>
</g>
<g>
</g>
</svg>
