<?xml version="1.0" encoding="iso-8859-1"?>
<!-- Generator: Adobe Illustrator 19.0.0, SVG Export Plug-In . SVG Version: 6.00 Build 0)  -->
<svg xmlns="http://www.w3.org/2000/svg" xmlns:xlink="http://www.w3.org/1999/xlink" version="1.1" id="Layer_1" x="0px" y="0px" viewBox="0 0 512 512" style="enable-background:new 0 0 512 512;" xml:space="preserve" width="512px" height="512px">
<g>
	<g>
		<path d="M487.328,173.374c1.234-19.266-5.238-38.452-18.678-53.379c-14.558-16.167-34.955-24.733-55.958-24.196    c-5.986-20.157-20.432-36.896-40.311-45.748c-19.877-8.851-41.982-8.386-60.965,0.652c-13.667-15.978-33.672-25.393-55.43-25.393    s-41.763,9.414-55.43,25.392c-18.985-9.038-41.09-9.503-60.966-0.651c-19.879,8.851-34.325,25.59-40.311,45.748    c-21.013-0.533-41.403,8.031-55.958,24.196c-13.44,14.926-19.912,34.114-18.679,53.379H0v16.696    c0,53.357,16.257,104.492,47.013,147.88c27.794,39.209,65.416,69.433,109.308,87.968v60.773h199.358v-60.774    c43.892-18.534,81.514-48.759,109.308-87.968C495.743,294.562,512,243.425,512,190.069v-16.696H487.328z M68.135,142.337    c10.184-11.312,25.628-15.769,40.301-11.632l20.383,5.747l0.83-21.161c0.599-15.233,9.611-28.544,23.522-34.737    c13.91-6.193,29.828-3.986,41.551,5.761l16.28,13.538l9.367-18.99c6.743-13.67,20.39-22.163,35.615-22.163    c15.225,0,28.872,8.492,35.615,22.163l9.367,18.99l16.281-13.538c11.72-9.747,27.641-11.954,41.551-5.761    c13.911,6.193,22.924,19.504,23.522,34.737l0.83,21.161l20.383-5.747c14.673-4.136,30.117,0.321,40.301,11.631    c7.773,8.633,11.24,19.893,9.942,31.037H58.192C56.895,162.23,60.361,150.969,68.135,142.337z M189.712,453.299V431.28h132.576    v22.018H189.712z M437.745,318.638c-25.594,36.106-60.748,63.459-101.805,79.251H176.059    c-41.058-15.792-76.211-43.145-101.805-79.251c-23.509-33.163-37.271-71.543-40.249-111.873h443.989    C475.017,247.095,461.254,285.475,437.745,318.638z" fill="#FFFFFF"/>
	</g>
</g>
<g>
</g>
<g>
</g>
<g>
</g>
<g>
</g>
<g>
</g>
<g>
</g>
<g>
</g>
<g>
</g>
<g>
</g>
<g>
</g>
<g>
</g>
<g>
</g>
<g>
</g>
<g>
</g>
<g>
</g>
</svg>
